<svg width="32" height="32" viewBox="0 0 32 32" fill="none" xmlns="http://www.w3.org/2000/svg">
<path d="M11.2859 5H8.14305C7.30953 5 6.51014 5.33112 5.92075 5.92051C5.33136 6.5099 5.00024 7.30929 5.00024 8.14281V26.9997C5.00024 27.8332 5.33136 28.6326 5.92075 29.222C6.51014 29.8114 7.30953 30.1425 8.14305 30.1425H23.8571C24.6906 30.1425 25.49 29.8114 26.0794 29.222C26.6688 28.6326 26.9999 27.8332 26.9999 26.9997V8.14281C26.9999 7.30929 26.6688 6.5099 26.0794 5.92051C25.49 5.33112 24.6906 5 23.8571 5H20.7143" stroke="#C8C8DB" stroke-width="2.2" stroke-linecap="round" stroke-linejoin="round"/>
<path d="M17.5715 1.85693H14.4287C12.693 1.85693 11.2859 3.26402 11.2859 4.99974C11.2859 6.73547 12.693 8.14256 14.4287 8.14256H17.5715C19.3072 8.14256 20.7143 6.73547 20.7143 4.99974C20.7143 3.26402 19.3072 1.85693 17.5715 1.85693Z" stroke="#C8C8DB" stroke-width="2.2" stroke-linecap="round" stroke-linejoin="round"/>
<path d="M19.143 14.4282H15.2145C14.5894 14.4282 13.9898 14.6766 13.5478 15.1186C13.1058 15.5606 12.8574 16.1602 12.8574 16.7853C12.8574 17.4105 13.1058 18.01 13.5478 18.4521C13.9898 18.8941 14.5894 19.1424 15.2145 19.1424H16.7859C17.4111 19.1424 18.0106 19.3908 18.4527 19.8328C18.8947 20.2749 19.143 20.8744 19.143 21.4995C19.143 22.1247 18.8947 22.7242 18.4527 23.1663C18.0106 23.6083 17.4111 23.8567 16.7859 23.8567H12.8574" stroke="#C8C8DB" stroke-width="2.2" stroke-linecap="round" stroke-linejoin="round"/>
<path d="M16 12.8569V14.4283M16 23.8568V25.4282V23.8568Z" stroke="#C8C8DB" stroke-width="2.2" stroke-linecap="round" stroke-linejoin="round"/>
</svg>
