<svg width="28" height="24" viewBox="0 0 28 24" fill="none" xmlns="http://www.w3.org/2000/svg">
<path d="M14.5521 2.66667H26.0001C26.3537 2.66667 26.6928 2.80714 26.9429 3.05719C27.1929 3.30724 27.3334 3.64638 27.3334 4V22.6667C27.3334 23.0203 27.1929 23.3594 26.9429 23.6095C26.6928 23.8595 26.3537 24 26.0001 24H2.00008C1.64646 24 1.30732 23.8595 1.05727 23.6095C0.807224 23.3594 0.666748 23.0203 0.666748 22.6667V1.33333C0.666748 0.979711 0.807224 0.640573 1.05727 0.390524C1.30732 0.140476 1.64646 0 2.00008 0H11.8854L14.5521 2.66667ZM3.33341 2.66667V21.3333H24.6667V5.33333H13.4481L10.7814 2.66667H3.33341ZM12.6667 13.4V8H19.3334V10.6667H15.3334V16.6667C15.3333 17.3545 15.1203 18.0255 14.7238 18.5875C14.3273 19.1496 13.7666 19.5752 13.1186 19.806C12.4707 20.0369 11.7672 20.0616 11.1046 19.8768C10.442 19.692 9.85286 19.3068 9.41788 18.7739C8.9829 18.2411 8.72341 17.5867 8.67501 16.9005C8.62661 16.2144 8.79166 15.5301 9.14753 14.9414C9.5034 14.3528 10.0327 13.8887 10.6627 13.6127C11.2928 13.3367 11.9928 13.2624 12.6667 13.4Z" fill="#18E306"/>
</svg>
