<svg width="32" height="32" viewBox="0 0 32 32" fill="none" xmlns="http://www.w3.org/2000/svg">
<path d="M16.0001 25.3335C16.2638 25.3335 16.5216 25.2553 16.7408 25.1088C16.9601 24.9623 17.131 24.754 17.2319 24.5104C17.3328 24.2668 17.3592 23.9987 17.3078 23.74C17.2563 23.4814 17.1294 23.2438 16.9429 23.0574C16.7564 22.8709 16.5188 22.7439 16.2602 22.6924C16.0016 22.641 15.7335 22.6674 15.4898 22.7683C15.2462 22.8692 15.038 23.0401 14.8915 23.2594C14.7449 23.4787 14.6667 23.7365 14.6667 24.0002C14.6667 24.3538 14.8072 24.6929 15.0573 24.943C15.3073 25.193 15.6465 25.3335 16.0001 25.3335ZM22.6667 25.3335C22.9305 25.3335 23.1882 25.2553 23.4075 25.1088C23.6268 24.9623 23.7977 24.754 23.8986 24.5104C23.9995 24.2668 24.0259 23.9987 23.9745 23.74C23.923 23.4814 23.796 23.2438 23.6096 23.0574C23.4231 22.8709 23.1855 22.7439 22.9269 22.6924C22.6682 22.641 22.4001 22.6674 22.1565 22.7683C21.9129 22.8692 21.7046 23.0401 21.5581 23.2594C21.4116 23.4787 21.3334 23.7365 21.3334 24.0002C21.3334 24.3538 21.4739 24.6929 21.7239 24.943C21.974 25.193 22.3131 25.3335 22.6667 25.3335ZM22.6667 20.0002C22.9305 20.0002 23.1882 19.922 23.4075 19.7755C23.6268 19.6289 23.7977 19.4207 23.8986 19.1771C23.9995 18.9334 24.0259 18.6653 23.9745 18.4067C23.923 18.1481 23.796 17.9105 23.6096 17.724C23.4231 17.5375 23.1855 17.4106 22.9269 17.3591C22.6682 17.3077 22.4001 17.3341 22.1565 17.435C21.9129 17.5359 21.7046 17.7068 21.5581 17.9261C21.4116 18.1453 21.3334 18.4031 21.3334 18.6668C21.3334 19.0205 21.4739 19.3596 21.7239 19.6096C21.974 19.8597 22.3131 20.0002 22.6667 20.0002ZM16.0001 20.0002C16.2638 20.0002 16.5216 19.922 16.7408 19.7755C16.9601 19.6289 17.131 19.4207 17.2319 19.1771C17.3328 18.9334 17.3592 18.6653 17.3078 18.4067C17.2563 18.1481 17.1294 17.9105 16.9429 17.724C16.7564 17.5375 16.5188 17.4106 16.2602 17.3591C16.0016 17.3077 15.7335 17.3341 15.4898 17.435C15.2462 17.5359 15.038 17.7068 14.8915 17.9261C14.7449 18.1453 14.6667 18.4031 14.6667 18.6668C14.6667 19.0205 14.8072 19.3596 15.0573 19.6096C15.3073 19.8597 15.6465 20.0002 16.0001 20.0002ZM25.3334 4.00016H24.0001V2.66683C24.0001 2.31321 23.8596 1.97407 23.6096 1.72402C23.3595 1.47397 23.0204 1.3335 22.6667 1.3335C22.3131 1.3335 21.974 1.47397 21.7239 1.72402C21.4739 1.97407 21.3334 2.31321 21.3334 2.66683V4.00016H10.6667V2.66683C10.6667 2.31321 10.5263 1.97407 10.2762 1.72402C10.0262 1.47397 9.68704 1.3335 9.33342 1.3335C8.97979 1.3335 8.64065 1.47397 8.39061 1.72402C8.14056 1.97407 8.00008 2.31321 8.00008 2.66683V4.00016H6.66675C5.60588 4.00016 4.58847 4.42159 3.83832 5.17174C3.08818 5.92188 2.66675 6.9393 2.66675 8.00016V26.6668C2.66675 27.7277 3.08818 28.7451 3.83832 29.4953C4.58847 30.2454 5.60588 30.6668 6.66675 30.6668H25.3334C26.3943 30.6668 27.4117 30.2454 28.1618 29.4953C28.912 28.7451 29.3334 27.7277 29.3334 26.6668V8.00016C29.3334 6.9393 28.912 5.92188 28.1618 5.17174C27.4117 4.42159 26.3943 4.00016 25.3334 4.00016ZM26.6667 26.6668C26.6667 27.0205 26.5263 27.3596 26.2762 27.6096C26.0262 27.8597 25.687 28.0002 25.3334 28.0002H6.66675C6.31313 28.0002 5.97399 27.8597 5.72394 27.6096C5.47389 27.3596 5.33341 27.0205 5.33341 26.6668V14.6668H26.6667V26.6668ZM26.6667 12.0002H5.33341V8.00016C5.33341 7.64654 5.47389 7.3074 5.72394 7.05735C5.97399 6.80731 6.31313 6.66683 6.66675 6.66683H8.00008V8.00016C8.00008 8.35378 8.14056 8.69292 8.39061 8.94297C8.64065 9.19302 8.97979 9.3335 9.33342 9.3335C9.68704 9.3335 10.0262 9.19302 10.2762 8.94297C10.5263 8.69292 10.6667 8.35378 10.6667 8.00016V6.66683H21.3334V8.00016C21.3334 8.35378 21.4739 8.69292 21.7239 8.94297C21.974 9.19302 22.3131 9.3335 22.6667 9.3335C23.0204 9.3335 23.3595 9.19302 23.6096 8.94297C23.8596 8.69292 24.0001 8.35378 24.0001 8.00016V6.66683H25.3334C25.687 6.66683 26.0262 6.80731 26.2762 7.05735C26.5263 7.3074 26.6667 7.64654 26.6667 8.00016V12.0002ZM9.33342 20.0002C9.59712 20.0002 9.85491 19.922 10.0742 19.7755C10.2934 19.6289 10.4643 19.4207 10.5653 19.1771C10.6662 18.9334 10.6926 18.6653 10.6411 18.4067C10.5897 18.1481 10.4627 17.9105 10.2762 17.724C10.0898 17.5375 9.85218 17.4106 9.59354 17.3591C9.33489 17.3077 9.06681 17.3341 8.82317 17.435C8.57954 17.5359 8.3713 17.7068 8.22479 17.9261C8.07828 18.1453 8.00008 18.4031 8.00008 18.6668C8.00008 19.0205 8.14056 19.3596 8.39061 19.6096C8.64065 19.8597 8.97979 20.0002 9.33342 20.0002ZM9.33342 25.3335C9.59712 25.3335 9.85491 25.2553 10.0742 25.1088C10.2934 24.9623 10.4643 24.754 10.5653 24.5104C10.6662 24.2668 10.6926 23.9987 10.6411 23.74C10.5897 23.4814 10.4627 23.2438 10.2762 23.0574C10.0898 22.8709 9.85218 22.7439 9.59354 22.6924C9.33489 22.641 9.06681 22.6674 8.82317 22.7683C8.57954 22.8692 8.3713 23.0401 8.22479 23.2594C8.07828 23.4787 8.00008 23.7365 8.00008 24.0002C8.00008 24.3538 8.14056 24.6929 8.39061 24.943C8.64065 25.193 8.97979 25.3335 9.33342 25.3335Z" fill="#C8C8DB"/>
</svg>
