<svg width="32" height="32" viewBox="0 0 32 32" fill="none" xmlns="http://www.w3.org/2000/svg">
<path d="M2.20234 10.2079H24.2257C25.437 10.2079 26.4281 10.8153 26.4281 12.0005C26.4281 13.1857 25.437 13.6311 24.2257 13.6311H2.20234C0.991053 13.6311 0 13.1857 0 12.0005C0 10.8153 0.991053 10.2079 2.20234 10.2079ZM2.20234 1.3335H24.2257C25.437 1.3335 26.4281 1.81526 26.4281 3.00049C26.4281 4.18571 25.437 4.50049 24.2257 4.50049H2.20234C0.991053 4.50049 0 4.18571 0 3.00049C0 1.81526 0.991053 1.3335 2.20234 1.3335ZM2.20234 18.7575H15.4164C16.6277 18.7575 17.6187 19.3153 17.6187 20.5005C17.6187 21.6857 16.6277 22.2598 15.4164 22.2598H2.20234C0.991053 22.2598 0 21.6857 0 20.5005C0 19.3153 0.991053 18.7575 2.20234 18.7575ZM22.0234 20.4695V29.585C22.0234 30.4254 22.9484 30.9426 23.6972 30.5116L31.4714 25.9431C32.1762 25.5336 32.1762 24.5208 31.4714 24.0898L23.6972 19.5213C23.5272 19.4263 23.3347 19.3766 23.139 19.3771C22.9432 19.3777 22.751 19.4285 22.5816 19.5244C22.4122 19.6204 22.2715 19.7582 22.1735 19.924C22.0756 20.0899 22.0238 20.278 22.0234 20.4695Z" fill="#C8C8DB"/>
</svg>
