<svg width="26" height="24" viewBox="0 0 26 24" fill="none" xmlns="http://www.w3.org/2000/svg">
<g clip-path="url(#clip0_262_8739)">
<path d="M12.5496 0C5.62223 0 0 5.376 0 12C0 18.624 5.62223 24 12.5496 24C19.477 24 25.0992 18.624 25.0992 12C25.0992 5.376 19.477 0 12.5496 0ZM2.50992 12C2.50992 11.268 2.61032 10.548 2.77347 9.864L8.77218 15.6V16.8C8.77218 18.12 9.90165 19.2 11.2821 19.2V21.516C6.35011 20.916 2.50992 16.884 2.50992 12ZM19.9413 18.48C19.6151 17.508 18.6864 16.8 17.5569 16.8H16.302V13.2C16.302 12.54 15.7372 12 15.047 12H7.51722V9.6H10.0271C10.7174 9.6 11.2821 9.06 11.2821 8.4V6H13.792C15.1725 6 16.302 4.92 16.302 3.6V3.108C19.979 4.524 22.5893 7.98 22.5893 12C22.5893 14.496 21.5728 16.776 19.9413 18.48Z" fill="#878891"/>
</g>
<defs>
<clipPath id="clip0_262_8739">
<rect width="25.0992" height="24" fill="white"/>
</clipPath>
</defs>
</svg>
