<svg width="32" height="32" viewBox="0 0 32 32" fill="none" xmlns="http://www.w3.org/2000/svg">
<path d="M13.1755 18.4096L13.1785 18.4162C12.3934 19.3982 11.3957 19.8725 10.1538 19.8725H8.64615C8.64174 19.8725 8.63921 19.8722 8.63294 19.8691C8.62463 19.865 8.60283 19.852 8.57023 19.8161C8.5116 19.7515 8.5 19.7046 8.5 19.6606C8.5 19.6166 8.5116 19.5697 8.57023 19.5051C8.60283 19.4692 8.62463 19.4562 8.63294 19.4521C8.63922 19.449 8.64175 19.4487 8.64615 19.4487H10.1538C10.878 19.4487 11.5479 19.227 12.1518 18.7966C12.4727 18.5678 12.7512 18.2998 12.987 17.9943L13.1755 18.4096ZM13.3582 18.6223C13.3582 18.6223 13.358 18.6221 13.3576 18.6218L13.3582 18.6223ZM16.9559 11.8467C16.635 12.0754 16.3565 12.3434 16.1207 12.6489L15.9403 12.2515C16.7285 11.2512 17.723 10.7708 18.9538 10.7708H21.5077H22.6098L21.8839 9.94146L21.0532 8.99231L21.0532 8.99226L21.0472 8.98557C20.9471 8.87539 20.9462 8.82036 20.9462 8.81315C20.9462 8.80593 20.9471 8.7509 21.0472 8.64072C21.0856 8.59834 21.1128 8.57876 21.1266 8.57058C21.1441 8.57784 21.1823 8.5984 21.2421 8.65435L23.1858 10.7956C23.2602 10.894 23.2692 10.954 23.2692 10.9826C23.2692 11.0113 23.2602 11.0713 23.1858 11.1696L21.2564 13.2952C21.18 13.354 21.1411 13.3629 21.1355 13.364C21.0927 13.3636 21.074 13.3541 21.0472 13.3246L20.6769 13.6606L21.0472 13.3245C20.9471 13.2144 20.9462 13.1593 20.9462 13.1521C20.9462 13.1449 20.9471 13.0899 21.0472 12.9797L21.0472 12.9798L21.0532 12.973L21.8839 12.0238L22.6098 11.1945H21.5077H18.9538C18.2297 11.1945 17.5598 11.4162 16.9559 11.8467ZM21.0532 17.6703L21.0532 17.6702L21.0471 17.6635C20.9471 17.5534 20.9462 17.4983 20.9462 17.4911C20.9462 17.4839 20.9471 17.4289 21.0471 17.3187C21.0856 17.2763 21.1128 17.2567 21.1266 17.2485C21.1444 17.2559 21.1833 17.2769 21.2446 17.3347L23.2493 19.4763C23.3219 19.5731 23.3308 19.6322 23.3308 19.6606C23.3308 19.6893 23.3217 19.7492 23.2473 19.8476L21.3063 21.986C21.2434 22.0419 21.2107 22.042 21.2 22.042C21.1551 22.042 21.1361 22.0327 21.1087 22.0025C21.0087 21.8923 21.0077 21.8373 21.0077 21.8301C21.0077 21.8229 21.0087 21.7679 21.1087 21.6577L21.9702 20.7085L22.7291 19.8725H21.6H19.0154C18.2365 19.8725 17.5311 19.6501 16.8863 19.1998C16.234 18.7443 15.7192 18.1299 15.3435 17.3434L15.3394 17.3348L15.3349 17.3263L15.0041 16.6968L14.3031 15.1186L14.3032 15.1186L14.2998 15.1114L13.5613 13.5181L13.5614 13.5181L13.5577 13.5105C13.2014 12.7746 12.7404 12.1905 12.1605 11.7912C11.5766 11.3891 10.9011 11.1945 10.1538 11.1945H8.64615C8.64175 11.1945 8.63922 11.1942 8.63294 11.1911C8.62463 11.187 8.60283 11.174 8.57023 11.1381C8.5116 11.0735 8.5 11.0267 8.5 10.9826C8.5 10.9386 8.5116 10.8918 8.57023 10.8272C8.60283 10.7912 8.62463 10.7783 8.63294 10.7742C8.63922 10.7711 8.64175 10.7708 8.64615 10.7708H10.1538C10.9329 10.7708 11.6445 10.9932 12.3011 11.4453C12.9585 11.898 13.4531 12.5058 13.7868 13.2818L13.7907 13.2909L13.795 13.2999L14.1014 13.9413L14.837 15.5283L15.5431 17.1178L15.5429 17.1179L15.5476 17.1278C15.8705 17.8139 16.3367 18.3744 16.9443 18.7992C17.5565 19.2272 18.2299 19.4487 18.9538 19.4487H21.5077H22.6098L21.8839 18.6194L21.0532 17.6703Z" fill="#F5F5FF" stroke="#FF7506"/>
<rect x="0.333333" y="0.333333" width="31.3333" height="31.3333" rx="15.6667" stroke="#FF7506" stroke-width="0.666667"/>
</svg>
