<svg width="32" height="32" viewBox="0 0 32 32" fill="none" xmlns="http://www.w3.org/2000/svg">
<path d="M25.3335 14.6663H17.3335V6.66634C17.3335 6.31272 17.193 5.97358 16.943 5.72353C16.6929 5.47348 16.3538 5.33301 16.0002 5.33301C15.6465 5.33301 15.3074 5.47348 15.0574 5.72353C14.8073 5.97358 14.6668 6.31272 14.6668 6.66634V14.6663H6.66683C6.31321 14.6663 5.97407 14.8068 5.72402 15.0569C5.47397 15.3069 5.3335 15.6461 5.3335 15.9997C5.3335 16.3533 5.47397 16.6924 5.72402 16.9425C5.97407 17.1925 6.31321 17.333 6.66683 17.333H14.6668V25.333C14.6668 25.6866 14.8073 26.0258 15.0574 26.2758C15.3074 26.5259 15.6465 26.6663 16.0002 26.6663C16.3538 26.6663 16.6929 26.5259 16.943 26.2758C17.193 26.0258 17.3335 25.6866 17.3335 25.333V17.333H25.3335C25.6871 17.333 26.0263 17.1925 26.2763 16.9425C26.5264 16.6924 26.6668 16.3533 26.6668 15.9997C26.6668 15.6461 26.5264 15.3069 26.2763 15.0569C26.0263 14.8068 25.6871 14.6663 25.3335 14.6663Z" fill="#FF7506"/>
</svg>
