<svg width="53" height="52" viewBox="0 0 53 52" fill="none" xmlns="http://www.w3.org/2000/svg">
<rect x="0.0625" width="52" height="52" rx="26" fill="#727288" fill-opacity="0.5"/>
<g clip-path="url(#clip0_14836_29460)">
<path d="M40.7292 38.0005V35.3338C40.7284 34.1521 40.3351 33.0042 39.6111 32.0702C38.8871 31.1363 37.8734 30.4693 36.7292 30.1738" stroke="#FF7506" stroke-width="2.0625" stroke-linecap="round" stroke-linejoin="round"/>
<path d="M32.7291 38V35.3333C32.7291 33.9188 32.1672 32.5623 31.167 31.5621C30.1668 30.5619 28.8102 30 27.3958 30H16.7291C15.3146 30 13.958 30.5619 12.9578 31.5621C11.9577 32.5623 11.3958 33.9188 11.3958 35.3333V38" stroke="#FF7506" stroke-width="2.0625" stroke-linecap="round" stroke-linejoin="round"/>
<path d="M31.3958 14.1738C32.543 14.4676 33.5598 15.1348 34.2859 16.0702C35.0121 17.0057 35.4062 18.1563 35.4062 19.3405C35.4062 20.5247 35.0121 21.6753 34.2859 22.6107C33.5598 23.5462 32.543 24.2134 31.3958 24.5072" stroke="#FF7506" stroke-width="2" stroke-linecap="round" stroke-linejoin="round"/>
<path d="M22.0626 24.6667C25.0081 24.6667 27.3959 22.2789 27.3959 19.3333C27.3959 16.3878 25.0081 14 22.0626 14C19.1171 14 16.7292 16.3878 16.7292 19.3333C16.7292 22.2789 19.1171 24.6667 22.0626 24.6667Z" stroke="#FF7506" stroke-width="2" stroke-linecap="round" stroke-linejoin="round"/>
</g>
<defs>
<clipPath id="clip0_14836_29460">
<rect width="32" height="32" fill="white" transform="translate(10.0625 10)"/>
</clipPath>
</defs>
</svg>
