<svg width="33" height="32" viewBox="0 0 33 32" fill="none" xmlns="http://www.w3.org/2000/svg">
<path d="M13.3958 23.9993C13.7495 23.9993 14.0886 23.8589 14.3386 23.6088C14.5887 23.3588 14.7292 23.0196 14.7292 22.666V14.666C14.7292 14.3124 14.5887 13.9733 14.3386 13.7232C14.0886 13.4732 13.7495 13.3327 13.3958 13.3327C13.0422 13.3327 12.7031 13.4732 12.453 13.7232C12.203 13.9733 12.0625 14.3124 12.0625 14.666V22.666C12.0625 23.0196 12.203 23.3588 12.453 23.6088C12.7031 23.8589 13.0422 23.9993 13.3958 23.9993ZM26.7292 7.99935H21.3958V6.66602C21.3958 5.60515 20.9744 4.58773 20.2243 3.83759C19.4741 3.08744 18.4567 2.66602 17.3958 2.66602H14.7292C13.6683 2.66602 12.6509 3.08744 11.9007 3.83759C11.1506 4.58773 10.7292 5.60515 10.7292 6.66602V7.99935H5.39583C5.04221 7.99935 4.70307 8.13983 4.45302 8.38987C4.20298 8.63992 4.0625 8.97906 4.0625 9.33268C4.0625 9.6863 4.20298 10.0254 4.45302 10.2755C4.70307 10.5255 5.04221 10.666 5.39583 10.666H6.72917V25.3327C6.72917 26.3935 7.15059 27.411 7.90074 28.1611C8.65089 28.9113 9.6683 29.3327 10.7292 29.3327H21.3958C22.4567 29.3327 23.4741 28.9113 24.2243 28.1611C24.9744 27.411 25.3958 26.3935 25.3958 25.3327V10.666H26.7292C27.0828 10.666 27.4219 10.5255 27.672 10.2755C27.922 10.0254 28.0625 9.6863 28.0625 9.33268C28.0625 8.97906 27.922 8.63992 27.672 8.38987C27.4219 8.13983 27.0828 7.99935 26.7292 7.99935ZM13.3958 6.66602C13.3958 6.31239 13.5363 5.97326 13.7864 5.72321C14.0364 5.47316 14.3755 5.33268 14.7292 5.33268H17.3958C17.7495 5.33268 18.0886 5.47316 18.3386 5.72321C18.5887 5.97326 18.7292 6.31239 18.7292 6.66602V7.99935H13.3958V6.66602ZM22.7292 25.3327C22.7292 25.6863 22.5887 26.0254 22.3386 26.2755C22.0886 26.5255 21.7495 26.666 21.3958 26.666H10.7292C10.3755 26.666 10.0364 26.5255 9.78636 26.2755C9.53631 26.0254 9.39583 25.6863 9.39583 25.3327V10.666H22.7292V25.3327ZM18.7292 23.9993C19.0828 23.9993 19.4219 23.8589 19.672 23.6088C19.922 23.3588 20.0625 23.0196 20.0625 22.666V14.666C20.0625 14.3124 19.922 13.9733 19.672 13.7232C19.4219 13.4732 19.0828 13.3327 18.7292 13.3327C18.3755 13.3327 18.0364 13.4732 17.7864 13.7232C17.5363 13.9733 17.3958 14.3124 17.3958 14.666V22.666C17.3958 23.0196 17.5363 23.3588 17.7864 23.6088C18.0364 23.8589 18.3755 23.9993 18.7292 23.9993Z" fill="#FF4747"/>
</svg>
